<?xml version="1.0" standalone="no"?>
<!DOCTYPE svg PUBLIC "-//W3C//DTD SVG 20010904//EN"
 "http://www.w3.org/TR/2001/REC-SVG-20010904/DTD/svg10.dtd">
<svg version="1.0" xmlns="http://www.w3.org/2000/svg"
 width="128.000000pt" height="128.000000pt" viewBox="0 0 128.000000 128.000000"
 preserveAspectRatio="xMidYMid meet">

<g transform="translate(0.000000,128.000000) scale(0.100000,-0.100000)"
fill="#000000" stroke="none">
<path d="M435 1186 c-174 -77 -158 -352 24 -407 112 -33 224 70 224 206 0 149
-129 254 -248 201z"/>
<path d="M845 1089 c-35 -10 -90 -60 -111 -101 -69 -134 29 -294 168 -272 48
8 115 65 139 118 42 92 10 200 -71 243 -45 24 -75 27 -125 12z"/>
<path d="M80 931 c-111 -59 -100 -245 19 -315 45 -26 123 -26 160 1 31 23 71
97 71 133 0 71 -49 154 -111 186 -38 19 -97 18 -139 -5z"/>
<path d="M1054 751 c-73 -33 -122 -124 -109 -202 9 -54 56 -106 108 -120 139
-37 276 134 208 261 -40 75 -122 100 -207 61z"/>
<path d="M483 723 c-67 -23 -132 -91 -218 -225 -115 -179 -124 -216 -79 -306
19 -38 38 -59 69 -78 64 -37 102 -40 187 -13 97 31 218 31 302 0 67 -24 85
-25 139 -10 94 26 158 132 137 226 -13 58 -151 274 -215 338 -32 31 -69 56
-101 68 -60 21 -162 21 -221 0z"/>
</g>
</svg>
